<svg width="512" height="512" xmlns="http://www.w3.org/2000/svg">

 <g>
  <title>background</title>
  <rect fill="none" id="canvas_background" height="402" width="582" y="-1" x="-1"/>
 </g>
 <g>
  <title>Layer 1</title>
  <polygon fill="#e6e6e6" id="svg_2" points="425.2720143198967,378 467.6720082163811,420.3999938964844 460.6720082163811,427.5 478.57200211286545,445.5 446.2720143198967,477.79998779296875 367.8720204234123,399.5 400.2720143198967,367.1000061035156 418.1720082163811,385.1000061035156 " class="st0"/>
  <path fill-opacity="0" fill="#ffffff" id="svg_3" d="m349.1,43.9c-16.7,27 -23.2,59.4 -18.1,91c3.1,2.7 6.1,5.5 8.9,8.4c16.9,2.7 33.9,2 50.3,-1.7l-22.2,-22.3l14.1,-14.1l29.5,29.5c9.6,-4 18.7,-9.1 27.2,-15.3l-48.6,-48.6l-7.1,7.1l-34,-34z" class="st1"/>
  <path fill-opacity="0" fill="#ffb000" id="svg_4" d="m125.1,430.4c16.6,-26.8 23.2,-59 18.2,-90.4c-2.9,-2.9 -5.7,-5.8 -8.4,-8.9c-17.1,-2.8 -34.4,-2.2 -50.9,1.6l22.3,22.3l-14.1,14.1l-29.5,-29.5c-9.6,4 -18.7,9.1 -27.2,15.3l48.5,48.5l7.1,-7.1l34,34.1z" class="st1"/>
  <rect fill="#4d5152" id="svg_6" y="199.3" x="284.4" width="20" transform="matrix(0.7071,-0.7071,0.7071,0.7071,-61.7735,269.4384) " height="20" class="st2"/>
  <rect fill="#4d5152" id="svg_7" y="198.2" x="226.7" width="20" transform="matrix(0.7071,-0.7071,0.7071,0.7071,-77.8964,228.3622) " height="20" class="st2"/>
  <rect fill="#4d5152" id="svg_8" y="255.9" x="227.8" width="20" transform="matrix(0.7071,-0.7071,0.7071,0.7071,-118.3422,246.007) " height="20" class="st2"/>
  <rect fill="#4d5152" id="svg_9" y="254.8" x="170.1" width="20" transform="matrix(0.7071,-0.7071,0.7071,0.7071,-134.4651,204.9308) " height="20" class="st2"/>
  <rect fill="#4d5152" id="svg_10" y="373.2" x="110.4" width="20" transform="matrix(0.7071,-0.7071,0.7071,0.7071,-235.7219,197.3859) " height="20" class="st2"/>
  <rect fill="#4d5152" id="svg_11" y="372.2" x="52.8" width="20" transform="matrix(0.7071,-0.7071,0.7071,0.7071,-251.8452,156.3105) " height="20" class="st2"/>
  <rect fill="#4d5152" id="svg_12" y="81" x="343.9" width="20" transform="matrix(0.7071,-0.7071,0.7071,0.7071,39.2692,276.8932) " height="20" class="st2"/>
  <rect fill="#4d5152" id="svg_13" y="82.1" x="401.5" width="20" transform="matrix(0.7071,-0.7071,0.7071,0.7071,55.391,317.9677) " height="20" class="st2"/>
  <path fill="#4d5152" id="svg_14" d="m271.3,136.2c-34.4,3.6 -66.9,19.2 -91.4,43.7c-24.5,24.5 -40,57 -43.7,91.4l19.9,2.1c2.1,-19.9 8.8,-39 19.2,-55.8l34.2,34.2l14.1,-14.1l-36.3,-36.3c2.1,-2.5 4.4,-4.9 6.7,-7.2c12.2,-12.2 26.7,-21.9 42.5,-28.4l29.6,29.6l14.1,-14.1l-22.3,-22.3c5.1,-1.2 10.3,-2 15.5,-2.6l-2.1,-20.2z" class="st2"/>
  <path fill="#4d5152" id="svg_15" d="m203,338.1c34.4,-3.6 66.9,-19.2 91.4,-43.7c24.5,-24.5 40,-57 43.7,-91.4l-19.9,-2.1c-2.1,19.8 -8.7,38.8 -19.1,55.6l-34.1,-34.1l-14.1,14.1l36.3,36.3c-2.2,2.6 -4.5,5.1 -6.9,7.5c-12.1,12.1 -26.5,21.7 -42.2,28.3l-29.7,-29.7l-14.1,14.1l22.5,22.5c-5.2,1.2 -10.5,2.1 -15.8,2.7l2,19.9z" class="st2"/>
  <rect fill="#4d5152" id="svg_16" y="389.2" x="435.7" width="20" transform="matrix(0.7071,-0.7071,0.7071,0.7071,-151.754,432.1025) " height="20" class="st2"/>
  <path fill="#4d5152" id="svg_17" d="m474,413.4l-14.1,14.1l17.9,17.9l-32.3,32.3l-78.3,-78.3l32.3,-32.3l17.9,17.9l14.1,-14.1l-32.1,-32.1l-11.6,11.6l-32.2,-32.2c15.1,-22.2 23.9,-49.1 23.9,-77.9c0,-27.8 -8.2,-53.7 -22.3,-75.5c41,0.9 81.5,-14.8 111.1,-44.4l-14.1,-14.1c-12.3,12.3 -26.8,21.9 -42.5,28.4l-29.5,-29.5l-14.2,14.1l22.3,22.3c-16.3,3.7 -33.4,4.4 -50.3,1.7c-2.9,-2.9 -5.8,-5.7 -8.9,-8.4c-5.2,-31.6 1.4,-64.1 18.1,-91l34,34.1l14.1,-14.1l-36.3,-36.3c2.2,-2.6 4.5,-5.1 6.9,-7.5l-14.1,-14.2c-30.3,30.3 -46,71.8 -44.3,113.7c-20.4,-11.7 -44,-18.4 -69.1,-18.4c-34.8,0 -66.6,12.8 -91,34l14.2,14.2c20.8,-17.6 47.6,-28.2 76.8,-28.2c65.7,0 119.2,53.5 119.2,119.2c0,65.7 -53.5,119.2 -119.2,119.2c-65.7,0 -119.2,-53.5 -119.2,-119.2c0,-29.3 10.6,-56.1 28.2,-76.8l-14.2,-14.2c-21.2,24.4 -34,56.3 -34,91c0,25.1 6.7,48.7 18.4,69.1c-41.9,-1.6 -83.4,14.1 -113.7,44.4l14.2,14.1c12.3,-12.3 26.8,-21.9 42.5,-28.4l29.5,29.5l14.1,-14.1l-22.2,-22.3c16.6,-3.8 33.9,-4.4 50.9,-1.6c2.7,3.1 5.5,6.1 8.4,8.9c5,31.4 -1.6,63.6 -18.2,90.4l-34.1,-34.1l-14.1,14.1l36.3,36.3c-2.2,2.6 -4.5,5.1 -6.9,7.5l14.1,14.1c29.6,-29.6 45.3,-70.1 44.4,-111.1c21.8,14.1 47.7,22.3 75.5,22.3c28.8,0 55.6,-8.8 77.9,-23.9l32.2,32.2l-11.6,11.6l106.6,106.6l60.6,-60.6l-32,-32zm-139.9,-70.2c1.6,-1.4 3.1,-2.9 4.7,-4.4c1.5,-1.5 3,-3.1 4.4,-4.7l30.5,30.5l-9.1,9.1l-30.5,-30.5z" class="st2"/>
 </g>
</svg>